<?xml version="1.0" encoding="utf-8"?>
<!-- Generator: Adobe Illustrator 18.0.0, SVG Export Plug-In . SVG Version: 6.00 Build 0)  -->
<!DOCTYPE svg PUBLIC "-//W3C//DTD SVG 1.1//EN" "http://www.w3.org/Graphics/SVG/1.1/DTD/svg11.dtd">
<svg version="1.1" id="Layer_1" xmlns="http://www.w3.org/2000/svg" xmlns:xlink="http://www.w3.org/1999/xlink" x="0px" y="0px"
	 viewBox="22.9 6 57 57" enable-background="new 22.9 6 57 57" xml:space="preserve">
<g id="Captions" display="none">
	<rect x="-128" y="-2.6" display="inline" width="137" height="73.3"/>
	<rect x="14.3" y="-29.3" display="inline" width="74.1" height="22.2"/>
	<text transform="matrix(1 0 0 1 63.1485 -17.0371)" display="inline" font-family="'Helvetica'" font-size="1.7778">http://thenounproject.com</text>
	<text transform="matrix(1 0 0 1 19.5674 -20.7407)" display="inline" font-family="'Helvetica-Bold'" font-size="4.5613">The Noun Project</text>
	<text transform="matrix(1 0 0 1 20.3976 -17.1851)" display="inline" font-family="'Helvetica-Bold'" font-size="2.963">Icon Template</text>
	<text transform="matrix(1 0 0 1 -117.9628 5.1856)" display="inline" font-family="'Helvetica-Bold'" font-size="4.5613">Reminders</text>
	<line display="inline" fill="none" stroke="#FFFFFF" stroke-miterlimit="10" x1="20.2" y1="-13.3" x2="27.6" y2="-13.3"/>
	<line display="inline" fill="none" stroke="#FFFFFF" stroke-miterlimit="10" x1="-118.3" y1="9.6" x2="-105.7" y2="9.6"/>
	<g display="inline">
		<g>
			<g>
				<rect x="-112.3" y="20.6" width="6.5" height="6.4"/>
				<path d="M-107.6,28.7h3.5v-3.5h-3.5V28.7z M-103.7,29.1h-4.2v-4.1h4.2V29.1L-103.7,29.1z M-108.9,30h6.1V24h-6.1V30L-108.9,30z
					 M-102.4,30.4h-6.8v-6.7h6.8V30.4L-102.4,30.4z"/>
				<polygon points="-108.8,30.1 -108.9,30 -102.8,23.9 -102.7,24 				"/>
			</g>
		</g>
	</g>
	<rect x="-118.3" y="40.4" display="inline" fill="none" width="25.9" height="24.1"/>
	<text transform="matrix(1 0 0 1 -118.333 41.9688)" display="inline" font-family="'Helvetica-Bold'" font-size="2.2222">Strokes</text>
	<text transform="matrix(1 0 0 1 -118.333 45.6719)" display="inline" font-family="'Helvetica'" font-size="1.7778">Try to keep strokes at 4px</text>
	<text transform="matrix(1 0 0 1 -118.333 49.376)" display="inline" font-family="'Helvetica'" font-size="1.7778">Minimum stroke weight is 2px</text>
	<text transform="matrix(1 0 0 1 -118.333 52.709)" display="inline" font-family="'Helvetica'" font-size="1.7778">For thicker strokes use even </text>
	<text transform="matrix(1 0 0 1 -118.333 54.9317)" display="inline" font-family="'Helvetica'" font-size="1.7778">numbers: 6px, 8px etc.</text>
	<text transform="matrix(1 0 0 1 -118.333 58.2646)" display="inline" font-family="'Helvetica-Bold'" font-size="1.7778">Remember to expand strokes </text>
	<text transform="matrix(1 0 0 1 -118.333 60.4868)" display="inline" font-family="'Helvetica-Bold'" font-size="1.7778">before saving as an SVG </text>
	<rect x="-86.9" y="40.4" display="inline" fill="none" width="25.9" height="24.1"/>
	<text transform="matrix(1 0 0 1 -86.8515 41.9688)" display="inline" font-family="'Helvetica-Bold'" font-size="2.2222">Size</text>
	<text transform="matrix(1 0 0 1 -86.8515 45.6719)" display="inline" font-family="'Helvetica'" font-size="1.7778">Cannot be wider or taller than </text>
	<text transform="matrix(1 0 0 1 -86.8515 48.2646)" display="inline" font-family="'Helvetica'" font-size="1.7778">100px (artboard size)</text>
	<text transform="matrix(1 0 0 1 -86.8515 51.9688)" display="inline" font-family="'Helvetica'" font-size="1.7778">Scale your icon to fill as much of </text>
	<text transform="matrix(1 0 0 1 -86.8515 54.1905)" display="inline" font-family="'Helvetica'" font-size="1.7778">the artboard as possible</text>
	<rect x="-55.4" y="40.4" display="inline" fill="none" width="25.9" height="24.1"/>
	<text transform="matrix(1 0 0 1 -55.3701 41.9688)" display="inline" font-family="'Helvetica-Bold'" font-size="2.2222">Ungroup</text>
	<text transform="matrix(1 0 0 1 -55.3701 45.6719)" display="inline" font-family="'Helvetica'" font-size="1.7778">If your design has more than one </text>
	<text transform="matrix(1 0 0 1 -55.3701 47.8945)" display="inline" font-family="'Helvetica'" font-size="1.7778">shape, make sure to ungroup</text>
	<rect x="-22.8" y="40.4" display="inline" fill="none" width="25.9" height="24.1"/>
	<text transform="matrix(1 0 0 1 -22.7773 41.9688)" display="inline" font-family="'Helvetica-Bold'" font-size="2.2222">Save as</text>
	<text transform="matrix(1 0 0 1 -22.7773 45.6719)" display="inline" font-family="'Helvetica'" font-size="1.7778">Save as .SVG and make sure </text>
	<text transform="matrix(1 0 0 1 -22.7773 47.8945)" display="inline" font-family="'Helvetica'" font-size="1.7778">“Use Artboards” is checked</text>
	<text transform="matrix(1.0074 0 0 1 -78.7349 20.0692)" display="inline" font-family="'Helvetica'" font-size="1.906">100px</text>
	<text transform="matrix(1.0074 0 0 1 -16.1113 26.2963)" display="inline" font-family="'Helvetica-Bold'" font-size="3.812">.SVG</text>
	<rect x="-79.5" y="23.2" display="inline" width="7.6" height="7.5"/>
	<rect x="-79.4" y="20.9" display="inline" width="0.4" height="1.7"/>
	<rect x="-72.3" y="20.9" display="inline" width="0.4" height="1.7"/>
	<rect x="-79.8" y="21.4" display="inline" width="8.3" height="0.4"/>
	<g display="inline">
		<rect x="-47.8" y="22.5" width="7.6" height="7.5"/>
		<rect x="-42.6" y="18.7" width="2.5" height="2.4"/>
	</g>
	<rect x="-118" y="14.1" display="inline" stroke="#FFFFFF" stroke-miterlimit="10" width="22.2" height="22.2"/>
	<rect x="-86.9" y="14.1" display="inline" stroke="#FFFFFF" stroke-miterlimit="10" width="22.2" height="22.2"/>
	<rect x="-55" y="14.1" display="inline" stroke="#FFFFFF" stroke-miterlimit="10" width="22.2" height="22.2"/>
	<rect x="-22.4" y="14.1" display="inline" stroke="#FFFFFF" stroke-miterlimit="10" width="22.2" height="22.2"/>
</g>
<g id="Your_Icon">
	<path fill="#737373" d="M51.3,6.4C35.8,6.4,23.1,19,23.1,34.5c0,15.5,12.6,28.1,28.1,28.1S79.4,50,79.4,34.5
		C79.4,19,66.8,6.4,51.3,6.4z M66.7,14.7c-2.2,0-5.6,0.3-9.8,1.6c-1.5-1.9-2.2-3.7-2.2-5.3c0-0.7,0.1-1.1,0.2-1.4
		c0-0.1,0.1-0.2,0.1-0.2c4.5,0.7,8.7,2.6,12.1,5.3C67,14.7,66.8,14.7,66.7,14.7z M76.5,32.6c-0.9-1.1-1.8-2.1-2.5-2.8
		c-1.6-1.5-3.3-2.8-4.7-3.6c-2.3-1.2-6.9-3.7-11.2-8.5c3.6-1.1,6.6-1.3,8.5-1.3c0.5,0,1,0,1.6,0.1c0.2,0,0.4,0,0.5,0
		c0.1,0,0.3,0,0.4,0l0.1,0C73.4,20.8,76.1,26.4,76.5,32.6z M53.2,9.2c-0.2,0.5-0.3,1.1-0.3,1.9c0,1.3,0.4,3.3,2.2,5.9
		c-1.3,0.5-2.6,1-4,1.7c-3.7-4.7-6.8-6.9-8.6-7.9c2.7-1,5.7-1.6,8.8-1.6C51.9,9.1,52.5,9.2,53.2,9.2z M40.3,11.6
		c0.9,0.3,4.4,1.8,9.2,7.8c-1.8,0.9-3.6,2.1-5.5,3.4c-0.3-0.4-0.6-0.7-0.9-1c-1.9-1.9-4.2-2.9-6.9-2.9c-1.9,0-3.9,0.5-5.9,1.4
		c0,0-0.1,0-0.1,0C32.7,16.6,36.2,13.6,40.3,11.6z M28.5,23.4l0.3-0.2c0,0,1-0.7,2.4-1.3c1.2-0.5,3.1-1.2,5-1.2
		c2.2,0,4.1,0.8,5.6,2.3c0.3,0.3,0.5,0.5,0.7,0.8c-0.4,0.3-0.8,0.6-1.3,1C36,29,32.2,33.4,29.9,38c-1.3,2.6-1.8,4.8-2,6.4
		c-1.3-3-2-6.3-2-9.8C25.9,30.5,26.8,26.7,28.5,23.4z M29.6,47.7L29.6,47.7l-0.1-0.5c0,0-0.1-0.3-0.1-0.9c0-1.3,0.3-4,2-7.5
		c2.1-4.3,5.8-8.5,10.8-12.5c0.4-0.3,0.8-0.6,1.2-0.9c0.6,0.9,1.1,1.9,1.4,2.9c0.6,1.8,0.9,3.9,0.9,6.2c0,3.7-0.7,7.7-1.5,11.1
		c-0.5,2.5-0.8,5-0.8,7.2c0,2.8,0.4,4.8,0.8,6C38.2,57.2,33,53.1,29.6,47.7z M46.5,59.4c-0.2-0.5-1-2.6-1-6.5c0-2.2,0.3-4.5,0.8-6.9
		c0.7-3.5,1.5-7.7,1.5-11.5c0-2.6-0.3-4.8-1-6.8c-0.4-1.2-1-2.3-1.7-3.4c1.9-1.3,3.8-2.4,5.5-3.4c1.1,1.4,2.2,3,3.3,4.9
		c3.5,5.6,6.3,11,8.2,15.8c1.8,4.7,2.8,8.8,2.8,12c0,0.8-0.1,1.6-0.2,2.3c-3.9,2.4-8.5,3.9-13.4,3.9C49.6,59.8,48,59.7,46.5,59.4z
		 M66.6,54.6c0-0.3,0-0.7,0-1c0-3.5-1-7.7-2.9-12.7c-1.9-5-4.7-10.4-8.3-16.1c-1.1-1.8-2.2-3.3-3.2-4.7c1.4-0.7,2.8-1.2,4.1-1.7
		c4.7,5.4,9.7,8.1,12.2,9.4c1.3,0.7,2.9,1.9,4.3,3.3c1.6,1.5,2.9,3.1,3.6,4.6l0.2,0.3C76.1,43.6,72.3,50.3,66.6,54.6z"/>
</g>
</svg>
